<svg xmlns="http://www.w3.org/2000/svg" viewBox="0 0 180 180">
  <rect width="180" height="180" rx="48" fill="#1e1f22"/>
  <rect x="20" y="20" width="140" height="140" rx="44" fill="#5865f2"/>
  <path d="M58 67c10-7.6 19.2-11.2 32-11.2S112 59.4 122 67l-5 15c-5-3.2-9-5-12.8-6.2-4.1-1.1-8.4-1.7-14.2-1.7s-10.1.6-14.2 1.7c-3.8 1.2-7.8 3-12.8 6.2l-5-15Zm14.5 32.7a8.1 8.1 0 1 1 16.2 0 8.1 8.1 0 0 1-16.2 0Zm27.3 0a8.1 8.1 0 1 1 16.2 0 8.1 8.1 0 0 1-16.2 0ZM52.3 123.4c9.8 5.6 22.1 7.9 37.7 7.9s27.9-2.3 37.7-7.9l-5.6-15.6c-3.5 2.4-7.5 4.3-12.8 5.8-5 1.5-11.5 2.4-19.3 2.4s-14.3-.9-19.3-2.4c-5.3-1.5-9.3-3.4-12.8-5.8l-5.6 15.6Z" fill="#fff"/>
</svg>
